<svg version="1.1" id="Layer_1" xmlns="http://www.w3.org/2000/svg" xmlns:xlink="http://www.w3.org/1999/xlink" x="0px" y="0px"
	 width="100%" viewBox="0 0 1080 1080" enable-background="new 0 0 1080 1080" xml:space="preserve">
<path fill="#FFFFFF" opacity="1.000000" stroke="none" 
	d="
M637.000000,1081.000000 
	C424.691101,1081.000000 212.882217,1081.000000 1.036667,1081.000000 
	C1.036667,721.065979 1.036667,361.131989 1.036667,1.098980 
	C360.892426,1.098980 720.784912,1.098980 1080.838623,1.098980 
	C1080.838623,360.999939 1080.838623,720.999939 1080.838623,1081.000000 
	C933.131531,1081.000000 785.315735,1081.000000 637.000000,1081.000000 
M716.720825,460.869568 
	C719.273010,459.958344 721.825134,459.047150 724.793884,458.751740 
	C724.606018,459.528595 724.572998,460.388580 724.207336,461.070007 
	C717.854431,472.908966 712.019836,485.072845 704.950928,496.470337 
	C692.980042,515.771179 680.223694,534.584961 667.243408,554.011536 
	C663.891418,558.363953 660.701538,562.853210 657.160400,567.045898 
	C638.902832,588.662537 620.691650,610.321960 602.101807,631.650574 
	C599.078369,635.119446 594.360657,637.221680 590.200989,639.554077 
	C587.089905,641.298462 584.594849,640.359924 584.346680,636.402588 
	C584.044861,631.590088 583.698486,626.750061 583.888428,621.942322 
	C584.715332,601.006348 591.000916,581.284058 598.981995,562.259766 
	C610.878662,533.902161 624.006165,506.063202 636.274841,477.857758 
	C639.637268,470.127594 642.501648,462.034149 644.347473,453.826935 
	C646.806274,442.894226 638.784485,436.286987 628.363647,440.078827 
	C614.047424,445.288177 601.000427,452.865326 588.112793,462.041992 
	C574.548096,471.840210 560.983337,481.638428 546.923401,490.950226 
	C546.744812,490.803162 546.566223,490.656067 546.696106,489.902252 
	C554.877808,479.003510 563.302185,468.275757 571.148438,457.140625 
	C575.700928,450.679840 579.860474,443.813171 583.181335,436.657867 
	C585.474182,431.717651 583.284119,426.393433 578.989258,424.787170 
	C575.056335,423.316254 570.400574,421.746857 566.531982,422.531494 
	C556.514282,424.563354 546.755005,427.869293 536.140564,430.787689 
	C517.766418,438.221619 499.392334,445.655579 480.283630,453.116058 
	C470.103333,457.235901 459.923065,461.355743 449.583374,465.540070 
	C448.756195,461.607391 448.401428,458.423431 447.388000,455.465118 
	C445.984222,451.367126 446.602814,448.037048 449.024902,444.387726 
	C458.122772,430.680206 466.913605,416.768921 476.344849,402.512054 
	C493.559753,379.665527 510.774628,356.818970 528.578735,333.665985 
	C531.738647,329.833099 534.796753,325.910736 538.075928,322.182739 
	C552.724365,305.529236 567.435913,288.931244 582.741516,272.021637 
	C594.419495,260.381653 606.171021,248.814011 617.729553,237.056610 
	C621.092529,233.635849 624.339844,229.930069 626.756470,225.833633 
	C627.741821,224.163330 627.210449,220.278687 625.850769,218.910339 
	C624.449951,217.500610 621.187134,217.591888 618.765320,217.688049 
	C617.484131,217.738892 616.088745,219.021805 615.034363,220.046310 
	C603.579285,231.176727 592.181519,242.366196 580.171448,253.874130 
	C561.714417,272.887848 543.257385,291.901520 524.214355,311.212341 
	C519.985596,315.649567 515.697388,320.031952 511.539154,324.534302 
	C498.925995,338.191193 486.363068,351.894470 473.191010,365.915161 
	C458.028625,382.432739 442.866211,398.950317 427.595886,415.585510 
	C426.079773,414.206512 424.746277,412.993622 423.099579,411.175079 
	C419.555511,407.921021 416.230194,404.382263 412.429352,401.462463 
	C396.355988,389.115143 378.186249,383.793152 357.047821,385.694519 
	C332.382965,386.725647 310.517365,395.445374 290.067657,410.008606 
	C269.303711,425.121948 252.380890,443.853088 239.712723,466.068573 
	C234.175461,475.778961 229.582153,486.421936 226.780685,497.217682 
	C220.566956,521.162964 234.557663,538.347412 259.270844,539.026428 
	C274.249023,539.438049 288.685699,536.585938 303.737396,532.565491 
	C310.723633,530.572693 317.709839,528.579895 324.696075,526.587097 
	C324.279297,528.540344 323.477539,529.569458 322.569397,530.494019 
	C308.825928,544.486389 295.080841,558.477295 281.308929,572.441650 
	C274.786926,579.054810 268.207336,585.611145 261.004333,592.467651 
	C241.291153,610.488708 221.577957,628.509766 201.231583,646.840881 
	C183.526932,660.590820 166.482132,675.294556 145.225891,685.034668 
	C143.796616,685.475891 142.370117,685.926331 140.937637,686.356934 
	C126.928223,690.567871 117.753433,686.382874 110.597015,673.939148 
	C109.935646,672.789185 109.418983,671.554382 108.859993,670.347412 
	C102.055099,655.654480 100.333557,639.900574 100.146370,624.057129 
	C99.597794,577.624817 108.532951,532.615540 122.895210,488.742218 
	C128.971848,470.179504 137.645981,452.467102 145.700745,433.933411 
	C150.383408,425.699341 154.890610,417.359467 159.781494,409.251007 
	C174.700897,384.516571 192.554688,361.962799 212.063339,339.929688 
	C227.406921,325.263702 242.297623,310.080963 258.245636,296.104675 
	C269.799744,285.979034 282.755585,277.452881 295.762817,268.031128 
	C306.094635,261.344818 316.140076,254.154938 326.820496,248.081741 
	C346.343994,236.980118 366.243042,226.538986 386.692932,215.750336 
	C416.659790,201.173050 447.417267,188.521133 479.753326,177.847244 
	C507.962189,168.367859 536.799072,161.320877 566.778381,155.664352 
	C595.515686,152.391464 624.252991,149.118561 653.920349,145.978302 
	C684.495056,145.311020 714.868835,147.336884 745.737732,153.021652 
	C757.589172,156.168533 769.792480,158.378830 781.214050,162.669876 
	C801.039978,170.118378 820.382446,178.853531 840.349731,187.586090 
	C859.598206,198.441956 878.495972,209.921448 894.745544,225.008148 
	C907.233521,236.602478 918.868896,249.115112 931.147888,261.831787 
	C931.945740,262.898163 932.711304,263.990570 933.546204,265.027100 
	C965.259216,304.398102 979.762878,349.763092 981.230286,399.910675 
	C982.370239,438.868988 974.731140,476.411316 963.320435,513.237427 
	C956.636292,534.809387 948.024109,555.783936 939.953552,577.684448 
	C928.170715,601.129883 917.198181,625.031128 904.346985,647.875549 
	C894.185303,665.939026 881.715881,682.704285 869.801270,700.547607 
	C868.875793,701.721130 867.925842,702.876221 867.028381,704.070923 
	C838.385132,742.198364 806.913635,777.792786 770.732605,808.928528 
	C751.985046,825.061829 732.204590,839.994995 712.235718,855.786987 
	C704.045837,861.159241 695.923279,866.637695 687.653381,871.883789 
	C662.932068,887.565857 637.012268,900.958313 609.263306,912.264282 
	C577.310669,924.667969 544.487732,933.276855 510.118866,935.395935 
	C502.154602,935.886963 494.193024,936.840759 486.323242,938.143555 
	C484.411163,938.460144 482.867645,941.003235 481.154663,942.522583 
	C482.849152,944.302979 484.242493,946.782532 486.318634,947.676880 
	C488.622894,948.669434 491.548035,948.309509 494.206848,948.375916 
	C512.424316,948.831482 530.560059,947.649902 548.147766,942.817078 
	C569.232910,937.023193 590.078979,930.359436 611.794556,924.059509 
	C626.768127,917.319031 642.217346,911.452393 656.598267,903.623291 
	C675.819275,893.158997 694.211365,881.172302 713.611023,869.670898 
	C760.559998,837.468262 802.498291,799.600281 840.018799,756.879639 
	C852.066956,743.161621 862.968445,728.436523 874.908813,713.786072 
	C881.215759,705.236572 888.147156,697.072144 893.703796,688.059998 
	C906.573547,667.186890 918.977112,646.017334 931.152039,624.729187 
	C935.826599,616.555786 939.365234,607.732666 943.878479,598.705322 
	C950.567078,582.752869 957.912842,567.039612 963.821106,550.803284 
	C981.655518,501.792633 994.866089,451.893982 993.238037,398.961975 
	C992.054993,360.498749 983.515442,324.219391 965.064880,290.397583 
	C956.261108,274.259430 945.498840,259.496338 932.743286,245.387619 
	C924.906067,237.292572 917.582886,228.605042 909.104370,221.249191 
	C897.948975,211.570862 886.241211,202.425629 874.101990,194.016907 
	C863.901367,186.951035 852.743286,181.267410 841.556335,174.462875 
	C822.732117,166.580688 804.172913,157.960068 784.990784,151.074905 
	C772.116516,146.453812 758.359558,144.291763 744.281738,140.698517 
	C714.120789,134.757568 683.649292,133.149063 652.093750,134.036255 
	C637.121887,135.159058 622.102966,135.861099 607.191895,137.527756 
	C593.385254,139.070969 579.693848,141.646179 565.210144,143.648102 
	C554.967957,145.783035 544.616150,147.498810 534.507324,150.143356 
	C515.585449,155.093384 496.804382,160.581711 477.188477,165.903122 
	C465.032288,170.298874 452.673340,174.210953 440.766479,179.201553 
	C421.992340,187.070465 403.521942,195.664062 384.210327,204.038483 
	C366.854034,213.136032 349.256958,221.808685 332.216888,231.464325 
	C318.354767,239.319229 305.160034,248.351959 291.014984,257.015564 
	C276.404205,267.920258 261.206024,278.134460 247.347900,289.923920 
	C233.497223,301.707062 220.987228,315.066132 207.287643,328.054169 
	C197.148422,339.903046 186.221527,351.177917 177.064743,363.742767 
	C164.988846,380.313171 154.302261,397.896057 142.480453,415.463715 
	C125.532310,444.807281 112.890327,475.897003 104.433556,508.715790 
	C93.465416,551.280579 85.622971,594.203003 88.994431,638.464600 
	C90.025810,652.004883 92.782265,665.138611 98.850525,677.387329 
	C108.139275,696.136597 126.671844,703.784546 146.762772,697.015503 
	C169.006546,689.000122 186.755096,674.034485 205.369827,659.242004 
	C213.840973,652.061768 222.452606,645.038940 230.734589,637.646790 
	C236.389191,632.599731 241.501709,626.950745 247.007446,621.729980 
	C252.252090,616.756775 257.692322,611.989868 263.671112,606.869141 
	C278.728668,591.834961 293.827637,576.841919 308.829468,561.752441 
	C319.133362,551.388306 329.715485,541.256531 339.401154,530.336060 
	C347.180176,521.565308 355.256561,513.885193 367.142639,511.436768 
	C367.449036,511.373657 367.712402,511.101471 368.746857,510.923615 
	C380.747498,506.351715 392.748138,501.779816 405.536041,496.907990 
	C404.679565,498.850647 404.258423,499.903320 403.761353,500.918823 
	C394.702332,519.426758 385.400879,537.820496 376.627167,556.462585 
	C365.706360,579.666687 356.612579,603.553162 351.494324,628.803528 
	C350.006897,636.141418 350.148285,643.353149 352.634796,650.440918 
	C355.435272,658.423645 362.106049,661.090698 369.247437,656.699646 
	C373.034882,654.370850 376.695740,651.554077 379.718628,648.309875 
	C398.869690,627.757202 412.425690,603.602539 424.707123,577.855225 
	C427.632996,570.988770 430.735657,564.191467 433.452881,557.243408 
	C443.044281,532.717651 451.006042,507.811737 450.928375,481.033600 
	C450.924469,479.689148 452.749023,477.733490 454.183289,477.089813 
	C463.042908,473.113556 472.034821,469.432037 481.668091,465.508118 
	C499.828644,458.198395 517.989197,450.888672 536.915649,443.371582 
	C548.569519,439.897797 559.701721,434.041687 571.842468,434.698761 
	C557.203613,453.985535 542.766907,473.005859 527.823975,492.505157 
	C509.818176,515.131775 493.997009,539.548279 472.239136,559.914856 
	C451.260468,581.049255 430.640228,602.503845 413.574188,627.047119 
	C411.220245,630.432373 408.784271,634.024902 407.646088,637.892273 
	C406.961487,640.218567 407.950928,643.897278 409.557281,645.830505 
	C411.797913,648.527039 415.012299,647.193787 417.552490,645.133789 
	C418.841309,644.088623 420.307831,643.194641 421.379120,641.959290 
	C438.638672,622.056396 455.847565,602.109558 473.658325,581.837280 
	C484.637421,569.246948 495.326141,556.386475 506.700317,544.163879 
	C513.966064,536.356079 522.245850,529.491882 530.709106,521.963196 
	C537.695129,516.061890 544.504211,509.934052 551.705933,504.308899 
	C564.715698,494.147247 577.959961,484.286011 591.782043,474.080292 
	C605.094604,465.828461 617.993774,456.824097 634.060852,450.152039 
	C633.094299,453.633911 632.783569,455.695526 631.969177,457.533997 
	C626.581787,469.696075 621.214355,481.869934 615.600037,493.928040 
	C602.475098,522.117126 588.772766,550.062927 579.490356,579.857605 
	C573.668518,598.544678 569.273682,617.442078 572.002808,637.270996 
	C573.658752,649.303040 583.129089,655.614685 594.267761,650.898865 
	C600.533691,648.245972 606.680176,644.239624 611.493347,639.449280 
	C621.504517,629.485596 630.906067,618.856689 639.977173,608.015076 
	C650.326050,595.646179 660.042480,582.748108 670.614380,569.738770 
	C682.515137,553.031982 694.415833,536.325195 706.316528,519.618408 
	C706.814087,521.113403 706.706604,522.368591 706.354004,523.550598 
	C698.872437,548.633301 692.780273,574.039612 690.573242,600.163818 
	C689.486389,613.028992 688.423950,625.989197 693.312683,638.669067 
	C698.021729,650.882629 709.797668,654.025757 719.407776,650.294800 
	C732.614380,645.167664 745.356262,638.833496 756.746826,629.003662 
	C777.872620,613.735474 796.865784,596.077698 814.372620,576.842896 
	C819.947327,570.718018 824.770081,563.869324 829.505981,557.052429 
	C830.501526,555.619324 830.435669,552.021057 829.352661,550.964539 
	C828.221436,549.861023 824.930969,549.906677 823.197205,550.734070 
	C820.581299,551.982483 818.357788,554.199707 816.208801,556.257141 
	C795.689392,575.902649 777.958862,598.445862 754.154541,615.672119 
	C745.485596,621.493958 736.995605,627.610962 728.075134,633.017883 
	C723.336914,635.889954 717.955505,637.833496 712.672791,639.633972 
	C708.238953,641.145203 704.985779,639.172302 704.461182,634.387817 
	C703.540588,625.991821 702.028564,617.503906 702.468933,609.144287 
	C703.918335,581.630188 710.160645,554.955811 717.788208,528.541077 
	C725.272522,502.622345 735.285950,477.689636 746.626221,452.584473 
	C754.755066,450.412231 762.883972,448.239990 771.871277,446.113892 
	C782.909729,444.369324 793.948120,442.624756 805.866272,440.964111 
	C811.947021,440.141724 818.049622,439.448120 824.096558,438.425781 
	C826.161499,438.076660 828.485962,437.331787 829.951477,435.970612 
	C831.156189,434.851746 831.939453,432.423828 831.632019,430.821198 
	C831.412720,429.677948 829.043213,428.108887 827.688049,428.160767 
	C820.103455,428.451141 812.535522,429.176758 804.062622,429.737061 
	C792.572693,431.705170 781.082825,433.673309 768.781799,435.701294 
	C763.769653,436.677185 758.757446,437.653107 754.145691,437.852753 
	C757.414062,430.616943 760.767517,423.417877 763.915527,416.130066 
	C765.526550,412.400391 765.228333,408.893036 761.197754,406.744812 
	C757.061523,404.540314 754.293335,407.182709 752.550232,410.202637 
	C746.283630,421.059998 740.368530,432.120270 733.680847,443.529083 
	C727.434875,445.600616 721.188843,447.672119 714.147339,449.835205 
	C705.437744,452.926392 696.728149,456.017578 687.277954,459.141602 
	C677.076904,463.464081 666.834473,467.693665 656.718689,472.207275 
	C655.168518,472.898956 653.470032,474.734161 653.107910,476.328430 
	C652.131165,480.629425 655.357178,482.955017 660.608582,481.214996 
	C670.163208,478.049133 679.531799,474.321625 689.716858,470.798431 
	C698.462585,467.485901 707.208374,464.173370 716.720825,460.869568 
z"/>
<path fill="#FF5644" opacity="1.000000" stroke="none" 
	d="
M357.945312,385.832916 
	C378.186249,383.793152 396.355988,389.115143 412.429352,401.462463 
	C416.230194,404.382263 419.555511,407.921021 422.923492,411.695557 
	C422.854340,421.206024 422.961273,430.195984 422.936096,439.486237 
	C405.744141,458.196442 388.684296,476.606323 371.624481,495.016205 
	C371.977722,495.481934 372.330994,495.947693 372.684265,496.413422 
	C382.073639,492.778961 391.337158,488.761444 400.889313,485.622253 
	C409.696716,482.727814 417.342804,478.921112 420.996094,470.009338 
	C421.505646,472.483887 421.993988,474.588898 422.207214,476.721405 
	C422.631653,480.966064 422.904785,485.225830 423.142273,489.801270 
	C413.484009,509.122559 403.627686,527.980042 394.440796,547.158264 
	C383.602997,569.782776 373.202362,592.631042 366.751526,617.012939 
	C365.137421,623.113708 363.526184,629.224609 362.253021,635.400818 
	C361.848236,637.364502 362.542114,639.554626 362.733276,641.641174 
	C364.792633,641.337097 367.179504,641.587463 368.839294,640.606934 
	C371.777679,638.871216 374.905304,636.838867 376.840729,634.134216 
	C383.511780,624.811829 390.367645,615.515564 395.923004,605.525269 
	C404.783478,589.591370 412.656891,573.108643 421.085388,557.193604 
	C421.575867,559.212463 422.039154,560.881226 422.260773,562.581543 
	C422.943390,567.818848 423.533569,573.068298 424.159668,578.312988 
	C412.425690,603.602539 398.869690,627.757202 379.718628,648.309875 
	C376.695740,651.554077 373.034882,654.370850 369.247437,656.699646 
	C362.106049,661.090698 355.435272,658.423645 352.634796,650.440918 
	C350.148285,643.353149 350.006897,636.141418 351.494324,628.803528 
	C356.612579,603.553162 365.706360,579.666687 376.627167,556.462585 
	C385.400879,537.820496 394.702332,519.426758 403.761353,500.918823 
	C404.258423,499.903320 404.679565,498.850647 405.536041,496.907990 
	C392.748138,501.779816 380.747498,506.351715 368.372986,510.461578 
	C367.867920,500.738068 367.736786,491.476562 367.766266,481.947845 
	C385.034088,462.732574 402.141296,443.784576 419.958618,424.050049 
	C413.784943,418.675262 408.261444,413.121033 402.005341,408.574921 
	C388.937256,399.078735 373.752167,396.744232 357.999847,396.516479 
	C357.982208,392.649048 357.963776,389.240997 357.945312,385.832916 
z"/>
<path fill="#FF7455" opacity="1.000000" stroke="none" 
	d="
M588.773254,461.898346 
	C601.000427,452.865326 614.047424,445.288177 628.363647,440.078827 
	C638.784485,436.286987 646.806274,442.894226 644.347473,453.826935 
	C642.501648,462.034149 639.637268,470.127594 636.274841,477.857758 
	C624.006165,506.063202 610.878662,533.902161 598.981995,562.259766 
	C591.000916,581.284058 584.715332,601.006348 583.888428,621.942322 
	C583.698486,626.750061 584.044861,631.590088 584.346680,636.402588 
	C584.594849,640.359924 587.089905,641.298462 590.200989,639.554077 
	C594.360657,637.221680 599.078369,635.119446 602.101807,631.650574 
	C620.691650,610.321960 638.902832,588.662537 657.160400,567.045898 
	C660.701538,562.853210 663.891418,558.363953 667.702271,554.219604 
	C668.785278,559.645081 669.409546,564.862488 670.033752,570.079956 
	C660.042480,582.748108 650.326050,595.646179 639.977173,608.015076 
	C630.906067,618.856689 621.504517,629.485596 611.493347,639.449280 
	C606.680176,644.239624 600.533691,648.245972 594.267761,650.898865 
	C583.129089,655.614685 573.658752,649.303040 572.002808,637.270996 
	C569.273682,617.442078 573.668518,598.544678 579.490356,579.857605 
	C588.772766,550.062927 602.475098,522.117126 615.600037,493.928040 
	C621.214355,481.869934 626.581787,469.696075 631.969177,457.533997 
	C632.783569,455.695526 633.094299,453.633911 634.060852,450.152039 
	C617.993774,456.824097 605.094604,465.828461 591.412964,473.753418 
	C590.962952,470.286682 591.007141,467.134918 590.710999,464.015442 
	C590.638794,463.255280 589.449158,462.601196 588.773254,461.898346 
z"/>
<path fill="#FF805B" opacity="1.000000" stroke="none" 
	d="
M670.324097,569.909363 
	C669.409546,564.862488 668.785278,559.645081 667.979309,554.015503 
	C680.223694,534.584961 692.980042,515.771179 704.950928,496.470337 
	C712.019836,485.072845 717.854431,472.908966 724.207336,461.070007 
	C724.572998,460.388580 724.606018,459.528595 724.883484,458.351135 
	C730.305054,456.624786 735.637085,455.299072 741.313354,453.837097 
	C743.105408,453.466949 744.553223,453.233002 746.000977,452.999054 
	C735.285950,477.689636 725.272522,502.622345 717.788208,528.541077 
	C710.160645,554.955811 703.918335,581.630188 702.468933,609.144287 
	C702.028564,617.503906 703.540588,625.991821 704.461182,634.387817 
	C704.985779,639.172302 708.238953,641.145203 712.672791,639.633972 
	C717.955505,637.833496 723.336914,635.889954 728.075134,633.017883 
	C736.995605,627.610962 745.485596,621.493958 754.527100,616.000610 
	C755.295166,620.622498 755.690796,624.916016 756.086365,629.209473 
	C745.356262,638.833496 732.614380,645.167664 719.407776,650.294800 
	C709.797668,654.025757 698.021729,650.882629 693.312683,638.669067 
	C688.423950,625.989197 689.486389,613.028992 690.573242,600.163818 
	C692.780273,574.039612 698.872437,548.633301 706.354004,523.550598 
	C706.706604,522.368591 706.814087,521.113403 706.316528,519.618408 
	C694.415833,536.325195 682.515137,553.031982 670.324097,569.909363 
M706.722412,518.576233 
	C707.076172,518.509766 707.429993,518.443298 707.783752,518.376831 
	C707.689270,518.112183 707.594849,517.847534 707.500427,517.582886 
	C707.275635,517.692688 707.050842,517.802551 706.722412,518.576233 
z"/>
<path fill="#FFA36F" opacity="1.000000" stroke="none" 
	d="
M940.279297,577.027161 
	C948.024109,555.783936 956.636292,534.809387 963.320435,513.237427 
	C974.731140,476.411316 982.370239,438.868988 981.230286,399.910675 
	C979.762878,349.763092 965.259216,304.398102 933.546204,265.027100 
	C932.711304,263.990570 931.945740,262.898163 931.243347,261.185852 
	C931.892944,259.113586 932.824219,257.713470 932.925476,256.255707 
	C933.161621,252.855026 932.998657,249.426651 932.997437,246.009491 
	C945.498840,259.496338 956.261108,274.259430 965.064880,290.397583 
	C983.515442,324.219391 992.054993,360.498749 993.238037,398.961975 
	C994.866089,451.893982 981.655518,501.792633 963.821106,550.803284 
	C957.912842,567.039612 950.567078,582.752869 943.281433,598.689697 
	C942.456299,592.966370 942.334717,587.251221 941.929626,581.556152 
	C941.820068,580.015137 940.852783,578.535156 940.279297,577.027161 
z"/>
<path fill="#FF5D48" opacity="1.000000" stroke="none" 
	d="
M423.068207,439.185944 
	C422.961273,430.195984 422.854340,421.206024 423.080078,411.998383 
	C424.746277,412.993622 426.079773,414.206512 427.595886,415.585510 
	C442.866211,398.950317 458.028625,382.432739 473.669067,366.161224 
	C474.431427,368.165405 474.935364,369.920166 474.962585,371.682251 
	C475.091766,380.035004 474.311615,388.391541 475.014709,396.742554 
	C475.189117,398.814270 475.546326,400.870575 475.819519,402.933960 
	C466.913605,416.768921 458.122772,430.680206 449.024902,444.387726 
	C446.602814,448.037048 445.984222,451.367126 447.388000,455.465118 
	C448.401428,458.423431 448.756195,461.607391 449.583374,465.540070 
	C459.923065,461.355743 470.103333,457.235901 480.645142,453.557129 
	C480.998688,457.882996 480.990723,461.767761 480.982788,465.652588 
	C472.034821,469.432037 463.042908,473.113556 454.183289,477.089813 
	C452.749023,477.733490 450.924469,479.689148 450.928375,481.033600 
	C451.006042,507.811737 443.044281,532.717651 433.452881,557.243408 
	C430.735657,564.191467 427.632996,570.988770 424.433411,578.084106 
	C423.533569,573.068298 422.943390,567.818848 422.260773,562.581543 
	C422.039154,560.881226 421.575867,559.212463 421.105591,556.828247 
	C430.036407,532.936829 438.175873,509.530121 438.743652,483.437500 
	C433.050049,485.656403 428.145233,487.567871 423.240417,489.479370 
	C422.904785,485.225830 422.631653,480.966064 422.207214,476.721405 
	C421.993988,474.588898 421.505646,472.483887 421.050873,469.673828 
	C423.721130,464.074860 426.464813,459.158630 429.247437,454.264557 
	C433.345154,447.057373 432.638367,442.446136 426.418457,436.296997 
	C425.303711,437.258240 424.185944,438.222107 423.068207,439.185944 
M469.330383,388.974823 
	C469.170258,389.265289 469.010101,389.555725 468.245911,390.134644 
	C457.264343,402.156189 446.282776,414.177734 435.112915,426.405457 
	C436.895233,429.379517 438.543243,432.129517 440.210022,434.910797 
	C450.192108,419.873444 459.925812,405.210266 469.996460,390.238281 
	C470.218536,390.012268 470.370453,389.746185 470.785187,389.048615 
	C470.744598,388.804413 470.703979,388.560181 470.663391,388.316010 
	C470.378693,388.478180 470.093994,388.640381 469.330383,388.974823 
z"/>
<path fill="#FF3231" opacity="1.000000" stroke="none" 
	d="
M145.992325,696.978271 
	C126.671844,703.784546 108.139275,696.136597 98.850525,677.387329 
	C92.782265,665.138611 90.025810,652.004883 88.994431,638.464600 
	C85.622971,594.203003 93.465416,551.280579 104.433556,508.715790 
	C112.890327,475.897003 125.532310,444.807281 142.914581,415.633850 
	C143.945633,421.992035 144.542572,428.180145 145.139496,434.368225 
	C137.645981,452.467102 128.971848,470.179504 122.895210,488.742218 
	C108.532951,532.615540 99.597794,577.624817 100.146370,624.057129 
	C100.333557,639.900574 102.055099,655.654480 108.859993,670.347412 
	C109.418983,671.554382 109.935646,672.789185 110.597015,673.939148 
	C117.753433,686.382874 126.928223,690.567871 140.937637,686.356934 
	C142.370117,685.926331 143.796616,685.475891 145.615341,685.497009 
	C146.000641,689.632324 145.996475,693.305298 145.992325,696.978271 
z"/>
<path fill="#FF8B61" opacity="1.000000" stroke="none" 
	d="
M712.890808,855.470337 
	C732.204590,839.994995 751.985046,825.061829 770.732605,808.928528 
	C806.913635,777.792786 838.385132,742.198364 867.028381,704.070923 
	C867.925842,702.876221 868.875793,701.721130 870.383179,700.380005 
	C871.642578,702.933777 872.325378,705.653809 872.995728,708.376953 
	C873.470764,710.306580 873.928833,712.240234 874.394531,714.172119 
	C862.968445,728.436523 852.066956,743.161621 840.018799,756.879639 
	C802.498291,799.600281 760.559998,837.468262 713.296875,869.300171 
	C712.952087,864.443054 712.921448,859.956665 712.890808,855.470337 
z"/>
<path fill="#FF6B50" opacity="1.000000" stroke="none" 
	d="
M588.442993,461.970154 
	C589.449158,462.601196 590.638794,463.255280 590.710999,464.015442 
	C591.007141,467.134918 590.962952,470.286682 591.075134,473.862915 
	C577.959961,484.286011 564.715698,494.147247 551.705933,504.308899 
	C544.504211,509.934052 537.695129,516.061890 530.369080,521.623291 
	C530.019348,513.068970 530.094482,504.852783 529.924866,496.641602 
	C529.892883,495.092804 528.886841,493.564148 528.330261,492.026184 
	C542.766907,473.005859 557.203613,453.985535 571.842468,434.698761 
	C559.701721,434.041687 548.569519,439.897797 536.493774,442.978088 
	C536.345459,438.611938 536.619019,434.639282 536.892517,430.666565 
	C546.755005,427.869293 556.514282,424.563354 566.531982,422.531494 
	C570.400574,421.746857 575.056335,423.316254 578.989258,424.787170 
	C583.284119,426.393433 585.474182,431.717651 583.181335,436.657867 
	C579.860474,443.813171 575.700928,450.679840 571.148438,457.140625 
	C563.302185,468.275757 554.877808,479.003510 546.341309,490.461853 
	C546.463867,491.159851 546.941284,491.298248 547.418640,491.436646 
	C560.983337,481.638428 574.548096,471.840210 588.442993,461.970154 
z"/>
<path fill="#FF4F41" opacity="1.000000" stroke="none" 
	d="
M367.605652,482.215088 
	C367.736786,491.476562 367.867920,500.738068 367.997467,510.463196 
	C367.712402,511.101471 367.449036,511.373657 367.142639,511.436768 
	C355.256561,513.885193 347.180176,521.565308 339.401154,530.336060 
	C329.715485,541.256531 319.133362,551.388306 308.829468,561.752441 
	C293.827637,576.841919 278.728668,591.834961 263.345398,606.531433 
	C262.564423,601.526917 262.109131,596.860046 261.653839,592.193237 
	C268.207336,585.611145 274.786926,579.054810 281.308929,572.441650 
	C295.080841,558.477295 308.825928,544.486389 322.569397,530.494019 
	C323.477539,529.569458 324.279297,528.540344 324.696075,526.587097 
	C317.709839,528.579895 310.723633,530.572693 303.363586,532.154358 
	C302.615845,527.987061 302.241974,524.230957 302.165405,520.299622 
	C315.271149,516.030457 328.123291,512.065186 340.852478,507.738129 
	C343.520447,506.831238 346.087952,504.939575 348.094971,502.903595 
	C354.747772,496.154572 361.123566,489.132446 367.605652,482.215088 
z"/>
<path fill="#FF443B" opacity="1.000000" stroke="none" 
	d="
M301.868073,520.474792 
	C302.241974,524.230957 302.615845,527.987061 302.988708,532.176270 
	C288.685699,536.585938 274.249023,539.438049 259.270844,539.026428 
	C234.557663,538.347412 220.566956,521.162964 226.780685,497.217682 
	C229.582153,486.421936 234.175461,475.778961 239.712723,466.068573 
	C252.380890,443.853088 269.303711,425.121948 290.729492,410.153015 
	C291.943665,414.243042 292.496002,418.188629 292.889282,422.423645 
	C274.009308,437.425446 258.788879,455.243591 247.728226,476.231232 
	C243.070984,485.068329 239.706619,494.910187 237.613953,504.693085 
	C235.027222,516.785767 241.101501,524.284119 253.333282,526.041504 
	C258.547211,526.790710 264.024078,527.110046 269.207214,526.382935 
	C280.154968,524.846802 290.987976,522.493103 301.868073,520.474792 
z"/>
<path fill="#FF644B" opacity="1.000000" stroke="none" 
	d="
M476.082153,402.723022 
	C475.546326,400.870575 475.189117,398.814270 475.014709,396.742554 
	C474.311615,388.391541 475.091766,380.035004 474.962585,371.682251 
	C474.935364,369.920166 474.431427,368.165405 473.963867,365.993469 
	C486.363068,351.894470 498.925995,338.191193 511.539154,324.534302 
	C515.697388,320.031952 519.985596,315.649567 524.918701,311.161743 
	C526.081970,312.715424 526.825012,314.298004 526.949158,315.927734 
	C527.406860,321.934204 527.659668,327.956238 527.989502,333.972443 
	C510.774628,356.818970 493.559753,379.665527 476.082153,402.723022 
z"/>
<path fill="#FF9A69" opacity="1.000000" stroke="none" 
	d="
M874.651672,713.979126 
	C873.928833,712.240234 873.470764,710.306580 872.995728,708.376953 
	C872.325378,705.653809 871.642578,702.933777 870.618164,700.129211 
	C881.715881,682.704285 894.185303,665.939026 904.346985,647.875549 
	C917.198181,625.031128 928.170715,601.129883 940.116394,577.355835 
	C940.852783,578.535156 941.820068,580.015137 941.929626,581.556152 
	C942.334717,587.251221 942.456299,592.966370 943.052917,598.939819 
	C939.365234,607.732666 935.826599,616.555786 931.152039,624.729187 
	C918.977112,646.017334 906.573547,667.186890 893.703796,688.059998 
	C888.147156,697.072144 881.215759,705.236572 874.651672,713.979126 
z"/>
<path fill="#FF5D48" opacity="1.000000" stroke="none" 
	d="
M473.067902,582.172668 
	C455.847565,602.109558 438.638672,622.056396 421.379120,641.959290 
	C420.307831,643.194641 418.841309,644.088623 417.552490,645.133789 
	C415.012299,647.193787 411.797913,648.527039 409.557281,645.830505 
	C407.950928,643.897278 406.961487,640.218567 407.646088,637.892273 
	C408.784271,634.024902 411.220245,630.432373 413.574188,627.047119 
	C430.640228,602.503845 451.260468,581.049255 472.588776,560.255554 
	C472.981567,567.788391 473.024750,574.980530 473.067902,582.172668 
z"/>
<path fill="#FF6B50" opacity="1.000000" stroke="none" 
	d="
M611.028564,924.072388 
	C590.078979,930.359436 569.232910,937.023193 548.147766,942.817078 
	C530.560059,947.649902 512.424316,948.831482 494.206848,948.375916 
	C491.548035,948.309509 488.622894,948.669434 486.318634,947.676880 
	C484.242493,946.782532 482.849152,944.302979 481.154663,942.522583 
	C482.867645,941.003235 484.411163,938.460144 486.323242,938.143555 
	C494.193024,936.840759 502.154602,935.886963 510.118866,935.395935 
	C544.487732,933.276855 577.310669,924.667969 609.639648,912.641113 
	C610.353516,916.702698 610.691040,920.387573 611.028564,924.072388 
z"/>
<path fill="#FF7A58" opacity="1.000000" stroke="none" 
	d="
M611.411560,924.065918 
	C610.691040,920.387573 610.353516,916.702698 610.001099,912.614441 
	C637.012268,900.958313 662.932068,887.565857 687.653381,871.883789 
	C695.923279,866.637695 704.045837,861.159241 712.563232,855.628662 
	C712.921448,859.956665 712.952087,864.443054 712.971069,869.384399 
	C694.211365,881.172302 675.819275,893.158997 656.598267,903.623291 
	C642.217346,911.452393 626.768127,917.319031 611.411560,924.065918 
z"/>
<path fill="#FF9A69" opacity="1.000000" stroke="none" 
	d="
M932.870361,245.698547 
	C932.998657,249.426651 933.161621,252.855026 932.925476,256.255707 
	C932.824219,257.713470 931.892944,259.113586 931.111084,260.879639 
	C918.868896,249.115112 907.233521,236.602478 894.745544,225.008148 
	C878.495972,209.921448 859.598206,198.441956 840.441467,187.037781 
	C841.025208,182.650269 841.517151,178.811050 842.009094,174.971832 
	C852.743286,181.267410 863.901367,186.951035 874.101990,194.016907 
	C886.241211,202.425629 897.948975,211.570862 909.104370,221.249191 
	C917.582886,228.605042 924.906067,237.292572 932.870361,245.698547 
z"/>
<path fill="#FF644B" opacity="1.000000" stroke="none" 
	d="
M473.363098,582.005005 
	C473.024750,574.980530 472.981567,567.788391 472.894501,560.098999 
	C493.997009,539.548279 509.818176,515.131775 528.077148,492.265686 
	C528.886841,493.564148 529.892883,495.092804 529.924866,496.641602 
	C530.094482,504.852783 530.019348,513.068970 530.050049,521.744019 
	C522.245850,529.491882 513.966064,536.356079 506.700317,544.163879 
	C495.326141,556.386475 484.637421,569.246948 473.363098,582.005005 
z"/>
<path fill="#FF3935" opacity="1.000000" stroke="none" 
	d="
M145.420135,434.150818 
	C144.542572,428.180145 143.945633,421.992035 143.183533,415.423828 
	C154.302261,397.896057 164.988846,380.313171 177.064743,363.742767 
	C186.221527,351.177917 197.148422,339.903046 207.743591,328.265625 
	C209.306793,332.402313 210.414017,336.327515 211.521255,340.252716 
	C192.554688,361.962799 174.700897,384.516571 159.781494,409.251007 
	C154.890610,417.359467 150.383408,425.699341 145.420135,434.150818 
z"/>
<path fill="#FF443B" opacity="1.000000" stroke="none" 
	d="
M211.792297,340.091187 
	C210.414017,336.327515 209.306793,332.402313 208.044525,328.105713 
	C220.987228,315.066132 233.497223,301.707062 247.347900,289.923920 
	C261.206024,278.134460 276.404205,267.920258 291.744934,257.031799 
	C293.345398,260.769867 294.215881,264.491669 295.086365,268.213470 
	C282.755585,277.452881 269.799744,285.979034 258.245636,296.104675 
	C242.297623,310.080963 227.406921,325.263702 211.792297,340.091187 
z"/>
<path fill="#FF6B50" opacity="1.000000" stroke="none" 
	d="
M528.284119,333.819214 
	C527.659668,327.956238 527.406860,321.934204 526.949158,315.927734 
	C526.825012,314.298004 526.081970,312.715424 525.211670,311.013184 
	C543.257385,291.901520 561.714417,272.887848 580.653687,254.126648 
	C581.465454,260.357178 581.795044,266.335175 582.124634,272.313171 
	C567.435913,288.931244 552.724365,305.529236 538.075928,322.182739 
	C534.796753,325.910736 531.738647,329.833099 528.284119,333.819214 
z"/>
<path fill="#FF8B61" opacity="1.000000" stroke="none" 
	d="
M756.416626,629.106567 
	C755.690796,624.916016 755.295166,620.622498 754.843628,615.832886 
	C777.958862,598.445862 795.689392,575.902649 816.208801,556.257141 
	C818.357788,554.199707 820.581299,551.982483 823.197205,550.734070 
	C824.930969,549.906677 828.221436,549.861023 829.352661,550.964539 
	C830.435669,552.021057 830.501526,555.619324 829.505981,557.052429 
	C824.770081,563.869324 819.947327,570.718018 814.372620,576.842896 
	C796.865784,596.077698 777.872620,613.735474 756.416626,629.106567 
z"/>
<path fill="#FF8B61" opacity="1.000000" stroke="none" 
	d="
M841.782715,174.717346 
	C841.517151,178.811050 841.025208,182.650269 840.230469,186.769318 
	C820.382446,178.853531 801.039978,170.118378 781.214050,162.669876 
	C769.792480,158.378830 757.589172,156.168533 745.366150,152.453583 
	C744.995605,148.266815 744.996582,144.648148 744.997559,141.029465 
	C758.359558,144.291763 772.116516,146.453812 784.990784,151.074905 
	C804.172913,157.960068 822.732117,166.580688 841.782715,174.717346 
z"/>
<path fill="#FF4F41" opacity="1.000000" stroke="none" 
	d="
M295.424591,268.122314 
	C294.215881,264.491669 293.345398,260.769867 292.072144,256.955200 
	C305.160034,248.351959 318.354767,239.319229 332.216888,231.464325 
	C349.256958,221.808685 366.854034,213.136032 384.872375,204.278687 
	C385.684784,208.286728 385.835114,212.054565 385.985474,215.822388 
	C366.243042,226.538986 346.343994,236.980118 326.820496,248.081741 
	C316.140076,254.154938 306.094635,261.344818 295.424591,268.122314 
z"/>
<path fill="#FF5D48" opacity="1.000000" stroke="none" 
	d="
M386.339203,215.786362 
	C385.835114,212.054565 385.684784,208.286728 385.228699,204.234894 
	C403.521942,195.664062 421.992340,187.070465 440.766479,179.201553 
	C452.673340,174.210953 465.032288,170.298874 477.632629,166.294586 
	C478.380493,170.407257 478.684235,174.128433 478.988007,177.849625 
	C447.417267,188.521133 416.659790,201.173050 386.339203,215.786362 
z"/>
<path fill="#FF805B" opacity="1.000000" stroke="none" 
	d="
M744.639648,140.863983 
	C744.996582,144.648148 744.995605,148.266815 744.991333,152.329346 
	C714.868835,147.336884 684.495056,145.311020 653.459351,145.464020 
	C652.995728,141.351013 652.993042,137.752289 652.990356,134.153580 
	C683.649292,133.149063 714.120789,134.757568 744.639648,140.863983 
z"/>
<path fill="#FF6B50" opacity="1.000000" stroke="none" 
	d="
M479.370667,177.848434 
	C478.684235,174.128433 478.380493,170.407257 478.020752,166.266083 
	C496.804382,160.581711 515.585449,155.093384 534.507324,150.143356 
	C544.616150,147.498810 554.967957,145.783035 565.598938,144.108765 
	C565.983337,148.241501 565.979004,151.913559 565.974609,155.585617 
	C536.799072,161.320877 507.962189,168.367859 479.370667,177.848434 
z"/>
<path fill="#FF7455" opacity="1.000000" stroke="none" 
	d="
M566.376465,155.624985 
	C565.979004,151.913559 565.983337,148.241501 565.969727,144.168182 
	C579.693848,141.646179 593.385254,139.070969 607.191895,137.527756 
	C622.102966,135.861099 637.121887,135.159058 652.542053,134.094910 
	C652.993042,137.752289 652.995728,141.351013 652.994324,145.397690 
	C624.252991,149.118561 595.515686,152.391464 566.376465,155.624985 
z"/>
<path fill="#FF443B" opacity="1.000000" stroke="none" 
	d="
M261.329102,592.330444 
	C262.109131,596.860046 262.564423,601.526917 263.033142,606.662964 
	C257.692322,611.989868 252.252090,616.756775 247.007446,621.729980 
	C241.501709,626.950745 236.389191,632.599731 230.734589,637.646790 
	C222.452606,645.038940 213.840973,652.061768 204.716721,659.129761 
	C203.330658,654.855225 202.597702,650.693054 201.864777,646.530884 
	C221.577957,628.509766 241.291153,610.488708 261.329102,592.330444 
z"/>
<path fill="#FF7455" opacity="1.000000" stroke="none" 
	d="
M582.433105,272.167419 
	C581.795044,266.335175 581.465454,260.357178 580.952026,253.959366 
	C592.181519,242.366196 603.579285,231.176727 615.034363,220.046310 
	C616.088745,219.021805 617.484131,217.738892 618.765320,217.688049 
	C621.187134,217.591888 624.449951,217.500610 625.850769,218.910339 
	C627.210449,220.278687 627.741821,224.163330 626.756470,225.833633 
	C624.339844,229.930069 621.092529,233.635849 617.729553,237.056610 
	C606.171021,248.814011 594.419495,260.381653 582.433105,272.167419 
z"/>
<path fill="#FF3935" opacity="1.000000" stroke="none" 
	d="
M201.548172,646.685852 
	C202.597702,650.693054 203.330658,654.855225 204.420853,659.255310 
	C186.755096,674.034485 169.006546,689.000122 146.377548,696.996887 
	C145.996475,693.305298 146.000641,689.632324 146.007507,685.501953 
	C166.482132,675.294556 183.526932,660.590820 201.548172,646.685852 
z"/>
<path fill="#FF4F41" opacity="1.000000" stroke="none" 
	d="
M293.048340,422.134247 
	C292.496002,418.188629 291.943665,414.243042 291.055267,410.070496 
	C310.517365,395.445374 332.382965,386.725647 357.496582,385.763733 
	C357.963776,389.240997 357.982208,392.649048 357.585541,396.617401 
	C351.923187,397.993835 346.647980,398.662750 341.433746,399.652893 
	C323.426422,403.072357 307.822876,411.724976 293.048340,422.134247 
z"/>
<path fill="#FF644B" opacity="1.000000" stroke="none" 
	d="
M536.516541,430.727142 
	C536.619019,434.639282 536.345459,438.611938 536.110840,443.081787 
	C517.989197,450.888672 499.828644,458.198395 481.325439,465.580322 
	C480.990723,461.767761 480.998688,457.882996 481.012451,453.543884 
	C499.392334,445.655579 517.766418,438.221619 536.516541,430.727142 
z"/>
<path fill="#FF8B61" opacity="1.000000" stroke="none" 
	d="
M734.320557,443.103821 
	C740.368530,432.120270 746.283630,421.059998 752.550232,410.202637 
	C754.293335,407.182709 757.061523,404.540314 761.197754,406.744812 
	C765.228333,408.893036 765.526550,412.400391 763.915527,416.130066 
	C760.767517,423.417877 757.414062,430.616943 753.712036,438.366760 
	C749.186401,439.920105 745.094421,440.959442 740.619263,442.005920 
	C738.264221,442.376617 736.292358,442.740204 734.320557,443.103821 
z"/>
<path fill="#FF3935" opacity="1.000000" stroke="none" 
	d="
M688.977905,470.828491 
	C679.531799,474.321625 670.163208,478.049133 660.608582,481.214996 
	C655.357178,482.955017 652.131165,480.629425 653.107910,476.328430 
	C653.470032,474.734161 655.168518,472.898956 656.718689,472.207275 
	C666.834473,467.693665 677.076904,463.464081 687.641602,459.567444 
	C688.329468,463.605042 688.653687,467.216736 688.977905,470.828491 
z"/>
<path fill="#FF8B61" opacity="1.000000" stroke="none" 
	d="
M769.592896,435.641418 
	C781.082825,433.673309 792.572693,431.705170 804.523376,430.222656 
	C804.984924,434.098907 804.985718,437.489563 804.986572,440.880188 
	C793.948120,442.624756 782.909729,444.369324 771.440369,445.632263 
	C770.537292,441.980896 770.065125,438.811157 769.592896,435.641418 
z"/>
<path fill="#FF7455" opacity="1.000000" stroke="none" 
	d="
M769.187378,435.671387 
	C770.065125,438.811157 770.537292,441.980896 771.011108,445.609192 
	C762.883972,448.239990 754.755066,450.412231 746.313599,452.791748 
	C744.553223,453.233002 743.105408,453.466949 741.324402,453.379578 
	C740.994934,449.371735 740.998657,445.685272 741.002441,441.998779 
	C745.094421,440.959442 749.186401,439.920105 753.511841,438.754883 
	C758.757446,437.653107 763.769653,436.677185 769.187378,435.671387 
z"/>
<path fill="#FF4F41" opacity="1.000000" stroke="none" 
	d="
M689.347412,470.813446 
	C688.653687,467.216736 688.329468,463.605042 688.011841,459.551056 
	C696.728149,456.017578 705.437744,452.926392 714.561646,450.251038 
	C715.302063,454.064880 715.628052,457.462860 715.954102,460.860840 
	C707.208374,464.173370 698.462585,467.485901 689.347412,470.813446 
z"/>
<path fill="#FF5D48" opacity="1.000000" stroke="none" 
	d="
M716.337463,460.865204 
	C715.628052,457.462860 715.302063,454.064880 714.959473,450.205261 
	C721.188843,447.672119 727.434875,445.600616 734.000732,443.316437 
	C736.292358,442.740204 738.264221,442.376617 740.619263,442.005920 
	C740.998657,445.685272 740.994934,449.371735 740.980103,453.515778 
	C735.637085,455.299072 730.305054,456.624786 724.675171,458.043213 
	C721.825134,459.047150 719.273010,459.958344 716.337463,460.865204 
z"/>
<path fill="#FF9A69" opacity="1.000000" stroke="none" 
	d="
M805.426392,440.922150 
	C804.985718,437.489563 804.984924,434.098907 804.973022,430.231018 
	C812.535522,429.176758 820.103455,428.451141 827.688049,428.160767 
	C829.043213,428.108887 831.412720,429.677948 831.632019,430.821198 
	C831.939453,432.423828 831.156189,434.851746 829.951477,435.970612 
	C828.485962,437.331787 826.161499,438.076660 824.096558,438.425781 
	C818.049622,439.448120 811.947021,440.141724 805.426392,440.922150 
z"/>
<path fill="#FFFEFE" opacity="1.000000" stroke="none" 
	d="
M292.889282,422.423645 
	C307.822876,411.724976 323.426422,403.072357 341.433746,399.652893 
	C346.647980,398.662750 351.923187,397.993835 357.584747,397.076752 
	C373.752167,396.744232 388.937256,399.078735 402.005341,408.574921 
	C408.261444,413.121033 413.784943,418.675262 419.958618,424.050049 
	C402.141296,443.784576 385.034088,462.732574 367.766235,481.947815 
	C361.123566,489.132446 354.747772,496.154572 348.094971,502.903595 
	C346.087952,504.939575 343.520447,506.831238 340.852478,507.738129 
	C328.123291,512.065186 315.271149,516.030457 302.165405,520.299622 
	C290.987976,522.493103 280.154968,524.846802 269.207214,526.382935 
	C264.024078,527.110046 258.547211,526.790710 253.333282,526.041504 
	C241.101501,524.284119 235.027222,516.785767 237.613953,504.693085 
	C239.706619,494.910187 243.070984,485.068329 247.728226,476.231232 
	C258.788879,455.243591 274.009308,437.425446 292.889282,422.423645 
z"/>
<path fill="#FFFDFD" opacity="1.000000" stroke="none" 
	d="
M423.142273,489.801239 
	C428.145233,487.567871 433.050049,485.656403 438.743652,483.437500 
	C438.175873,509.530121 430.036407,532.936829 420.967896,556.492615 
	C412.656891,573.108643 404.783478,589.591370 395.923004,605.525269 
	C390.367645,615.515564 383.511780,624.811829 376.840729,634.134216 
	C374.905304,636.838867 371.777679,638.871216 368.839294,640.606934 
	C367.179504,641.587463 364.792633,641.337097 362.733276,641.641174 
	C362.542114,639.554626 361.848236,637.364502 362.253021,635.400818 
	C363.526184,629.224609 365.137421,623.113708 366.751526,617.012939 
	C373.202362,592.631042 383.602997,569.782776 394.440796,547.158264 
	C403.627686,527.980042 413.484009,509.122559 423.142273,489.801239 
z"/>
<path fill="#FFFDFD" opacity="1.000000" stroke="none" 
	d="
M422.936096,439.486237 
	C424.185944,438.222107 425.303711,437.258240 426.418457,436.296997 
	C432.638367,442.446136 433.345154,447.057373 429.247437,454.264557 
	C426.464813,459.158630 423.721130,464.074860 420.905273,469.316711 
	C417.342804,478.921112 409.696716,482.727814 400.889313,485.622253 
	C391.337158,488.761444 382.073639,492.778961 372.684265,496.413422 
	C372.330994,495.947693 371.977722,495.481934 371.624481,495.016205 
	C388.684296,476.606323 405.744141,458.196442 422.936096,439.486237 
z"/>
<path fill="#FFFFFF" opacity="1.000000" stroke="none" 
	d="
M706.774231,518.244324 
	C707.050842,517.802551 707.275635,517.692688 707.500427,517.582886 
	C707.594849,517.847534 707.689270,518.112183 707.783752,518.376831 
	C707.429993,518.443298 707.076172,518.509766 706.774231,518.244324 
z"/>
<path fill="#FFFDFD" opacity="1.000000" stroke="none" 
	d="
M469.659515,390.547119 
	C459.925812,405.210266 450.192108,419.873444 440.210022,434.910797 
	C438.543243,432.129517 436.895233,429.379517 435.112915,426.405457 
	C446.282776,414.177734 457.264343,402.156189 468.740417,390.177063 
	C469.376465,390.328705 469.518005,390.437897 469.659515,390.547119 
z"/>
<path fill="#FFFDFD" opacity="1.000000" stroke="none" 
	d="
M469.042450,390.032837 
	C469.010101,389.555725 469.170258,389.265289 469.728455,389.050171 
	C470.126495,389.125549 470.452209,389.440033 470.452209,389.440033 
	C470.370453,389.746185 470.218536,390.012268 469.828003,390.392700 
	C469.518005,390.437897 469.376465,390.328705 469.042450,390.032837 
z"/>
<path fill="#FFFDFD" opacity="1.000000" stroke="none" 
	d="
M469.967896,388.964050 
	C470.093994,388.640381 470.378693,388.478180 470.663391,388.315979 
	C470.703979,388.560181 470.744598,388.804413 470.618713,389.244324 
	C470.452209,389.440033 470.126495,389.125549 469.967896,388.964050 
z"/>
<path fill="#FFFFFF" opacity="1.000000" stroke="none" 
	d="
M547.171021,491.193420 
	C546.941284,491.298248 546.463867,491.159851 546.187012,490.765228 
	C546.566223,490.656067 546.744812,490.803162 547.171021,491.193420 
z"/>
</svg>