<svg version="1.1" id="Layer_1" xmlns="http://www.w3.org/2000/svg" xmlns:xlink="http://www.w3.org/1999/xlink" x="0px" y="0px"
	 width="100%" viewBox="0 0 1024 1024" enable-background="new 0 0 1024 1024" xml:space="preserve">
<path fill="#000000" opacity="1.000000" stroke="none" 
	d="
M550.741699,772.931519 
	C540.757568,777.009460 530.942200,778.959229 520.700439,775.656189 
	C506.252472,770.996582 498.029114,759.799744 496.784332,740.560303 
	C495.545624,721.414734 500.590210,703.198669 507.114777,685.477173 
	C516.903625,658.889465 528.441101,633.026428 540.824524,607.544312 
	C541.897400,605.336609 542.902039,603.095825 543.990540,600.758545 
	C541.039795,599.512451 538.374756,599.540771 535.745667,599.398132 
	C494.374023,597.153381 452.985321,594.999268 412.527649,585.029297 
	C408.736755,584.095093 406.205170,585.151001 403.538513,587.493530 
	C381.515137,606.839417 359.406769,626.088623 337.395569,645.448364 
	C310.381012,669.208923 283.442444,693.055908 256.457703,716.850403 
	C235.474350,735.353088 214.598587,753.980591 193.445770,772.287781 
	C162.353409,799.197327 131.896271,826.908630 97.781448,850.101746 
	C84.251068,859.300415 70.242226,867.639648 54.454102,872.478882 
	C42.976051,875.997009 32.129715,875.363647 23.645199,865.875183 
	C17.697147,859.223328 15.243791,850.826965 14.692767,841.989075 
	C12.624489,808.816101 22.516851,778.128967 35.011013,748.173279 
	C58.261070,692.429504 91.808830,643.429443 134.345947,600.699768 
	C149.615799,585.360840 166.491028,571.748047 184.491196,559.534790 
	C205.366669,545.370483 222.719803,559.257141 224.409683,580.321472 
	C226.353668,604.553345 219.189224,626.496460 207.818817,647.124878 
	C188.265839,682.598450 157.769028,704.652283 119.431892,716.455750 
	C117.662132,717.000610 115.902122,717.409363 114.036247,717.243774 
	C111.394974,717.009277 109.677826,715.528015 108.981262,713.087891 
	C108.301445,710.706421 108.578163,708.296448 110.843155,706.833740 
	C113.209900,705.305237 115.734840,703.995728 118.276466,702.768188 
	C135.385880,694.505066 152.153168,685.824707 167.322708,674.074280 
	C185.024475,660.362305 195.835724,642.210693 203.701508,621.903687 
	C209.117050,607.922363 211.949631,593.466492 209.750809,578.376404 
	C209.487350,576.568359 209.158707,574.756165 208.675812,572.996582 
	C207.801971,569.812561 205.763519,568.854675 202.567429,569.814392 
	C197.386353,571.370300 192.877243,574.186646 188.355988,577.010071 
	C158.891602,595.410278 134.607437,619.289185 113.090637,646.435669 
	C88.109077,677.953369 67.004089,711.700684 51.037399,748.598694 
	C41.896751,769.722107 33.880787,791.252563 30.724195,814.246765 
	C29.157692,825.657959 27.923927,837.130615 30.876907,848.480835 
	C33.981251,860.412903 40.542274,863.415466 51.815266,858.500793 
	C71.335686,849.990479 89.128700,838.634277 105.971550,825.701416 
	C139.171371,800.209167 170.219818,772.181763 201.604156,744.551270 
	C240.370300,710.421936 279.106079,676.258118 317.859497,642.114380 
	C340.486237,622.178955 363.120789,602.252380 385.756622,582.327332 
	C386.872375,581.345154 388.033997,580.414978 389.110168,579.514282 
	C387.968201,576.862549 385.775635,576.646118 384.012787,576.078369 
	C357.339783,567.487427 335.020844,552.450317 316.467651,531.472534 
	C309.192596,523.246765 301.224579,515.653015 294.422333,506.965881 
	C280.473511,489.151794 277.873596,468.852692 281.187286,447.339935 
	C284.606506,425.141693 296.372467,406.935730 310.347839,390.166290 
	C330.560913,365.912079 355.727264,348.657013 386.135132,339.564301 
	C408.162964,332.977448 430.608978,332.850830 452.850128,337.717804 
	C495.179718,346.980560 529.351990,370.277496 558.630859,401.388641 
	C564.443726,407.565155 569.726624,414.255920 575.027771,420.890228 
	C576.996887,423.354523 578.373169,423.253326 580.713013,421.429565 
	C617.384033,392.846191 654.836487,365.313202 692.863464,338.566772 
	C725.299194,315.752991 758.439026,293.979187 791.630554,272.287872 
	C834.584229,244.216797 877.260803,215.702454 921.633118,189.874817 
	C943.661133,177.053070 965.968811,164.730896 989.084473,153.939331 
	C994.172119,151.564194 999.384521,150.184799 1005.059509,151.632324 
	C1011.213806,153.202133 1013.399658,158.789352 1009.677124,163.959778 
	C1007.499146,166.984894 1004.430847,168.996353 1001.269104,170.918900 
	C964.404358,193.335495 926.453491,213.923965 890.206787,237.390579 
	C845.655640,266.233551 803.309937,298.026550 762.927734,332.392242 
	C713.996948,374.032806 670.104736,420.383026 634.085327,473.824402 
	C627.943542,482.936951 622.365051,492.428345 616.476624,501.713165 
	C614.785095,504.380463 614.501343,506.948822 615.117737,510.178925 
	C618.490112,527.850037 620.560730,545.696594 621.384216,563.679443 
	C621.635254,569.162231 622.108887,574.638245 622.220581,580.122681 
	C622.290283,583.542053 624.321289,583.793213 626.874817,583.697876 
	C637.024780,583.318909 647.184509,583.117859 657.323303,582.544983 
	C670.781555,581.784546 684.235168,581.073425 697.710938,580.612976 
	C712.531738,580.106506 727.345459,579.734375 742.172424,579.817200 
	C743.672119,579.825562 745.173035,579.797302 746.671265,579.848206 
	C750.420837,579.975647 753.344727,581.444397 753.621643,585.520996 
	C753.906372,589.712952 750.764709,591.772888 747.336548,591.904419 
	C741.136963,592.142334 735.157349,593.711853 729.025635,594.166809 
	C694.982178,596.693115 660.910950,598.717163 626.772583,599.320007 
	C622.743530,599.391174 622.383484,601.477295 622.170837,604.712769 
	C620.403381,631.595764 619.623352,658.632019 612.213257,684.790588 
	C605.690369,707.817139 597.427063,730.104065 582.161194,749.058777 
	C573.759521,759.490601 563.365540,767.376709 550.741699,772.931519 
M525.293335,391.214111 
	C515.683350,383.453705 505.542786,376.464355 494.772980,370.413208 
	C466.586853,354.576385 436.614349,345.657318 404.255859,351.665863 
	C354.329620,360.936462 320.246002,391.026855 300.165497,436.766479 
	C291.524353,456.449463 292.446228,477.168121 305.045197,495.431274 
	C317.604797,513.637512 334.498749,528.032043 351.164520,542.322205 
	C364.964905,554.155396 382.581940,558.711365 399.349030,564.696106 
	C402.978088,565.991516 405.568542,565.205017 408.354218,562.729248 
	C417.191406,554.875183 426.130981,547.130920 435.180634,539.522217 
	C474.190826,506.723877 513.381714,474.145782 553.506226,442.706848 
	C557.262268,439.763794 561.337219,437.121399 564.711304,433.135956 
	C553.455383,417.575470 540.478210,403.854523 525.293335,391.214111 
M554.940857,579.602051 
	C567.571228,555.200317 581.485901,531.509766 594.916809,507.552094 
	C596.477539,504.768066 597.275940,502.193298 596.341003,499.052338 
	C593.205994,488.519806 589.896484,478.037781 585.327026,468.036560 
	C582.102600,460.979279 578.785522,453.918518 573.872620,446.797546 
	C522.494202,487.056335 472.477722,528.042542 422.791931,571.083008 
	C431.094452,573.377625 438.240936,574.831421 445.466400,575.728394 
	C463.117279,577.919495 480.822144,579.544312 498.565826,580.870605 
	C514.978210,582.097473 531.362671,583.600281 547.831726,583.889221 
	C550.878357,583.942688 553.525085,583.704956 554.940857,579.602051 
M575.517334,600.339478 
	C572.353027,600.343079 569.182129,600.474792 566.026367,600.312683 
	C563.129150,600.163696 561.480713,601.382812 560.203674,603.953186 
	C545.679443,633.186584 531.920105,662.767639 521.015503,693.562317 
	C515.459534,709.252502 510.917389,725.237732 512.245300,742.281128 
	C513.308289,755.925110 522.412720,763.835754 535.167175,761.547241 
	C539.254089,760.813904 543.229675,759.567932 546.973206,757.644287 
	C562.036438,749.904053 572.745544,737.948792 580.638916,723.196350 
	C600.427979,686.211487 604.827148,645.853333 606.680298,604.922424 
	C606.835938,601.486267 605.404114,600.123596 601.990540,600.182495 
	C593.498962,600.329285 585.004272,600.298035 575.517334,600.339478 
M653.227173,421.748169 
	C685.591919,381.439026 722.368347,345.479340 761.814514,312.122681 
	C755.303650,314.676147 750.029053,318.988770 744.379456,322.718079 
	C691.394226,357.693909 640.312195,395.301331 590.073120,434.082672 
	C587.427490,436.124939 586.963379,437.780670 588.782471,440.684692 
	C595.530640,451.457520 600.446106,463.117584 604.827454,475.014038 
	C605.841125,477.766418 606.446106,480.708374 608.796631,483.912476 
	C622.370728,462.136536 636.876587,441.707703 653.227173,421.748169 
M593.149414,542.582275 
	C585.568115,556.288635 577.986755,569.995056 570.029724,584.380676 
	C581.380310,585.077148 591.468506,584.387207 601.567139,584.117188 
	C605.422913,584.014038 606.768982,582.723999 606.741394,578.817749 
	C606.659058,567.174561 605.500427,555.606995 604.405090,544.051147 
	C603.933472,539.075134 603.782471,533.898621 601.536682,527.828918 
	C598.510010,533.154602 596.011597,537.550781 593.149414,542.582275 
z"/>
</svg>